<?xml version="1.0" encoding="UTF-8" standalone="no"?>
<!-- Created with Inkscape (http://www.inkscape.org/) -->

<svg
   version="1.1"
   id="svg302"
   width="2048"
   height="2048"
   viewBox="0 0 2048 2048"
   sodipodi:docname="pizza-logo.svg"
   inkscape:version="1.2 (dc2aedaf03, 2022-05-15)"
   xmlns:inkscape="http://www.inkscape.org/namespaces/inkscape"
   xmlns:sodipodi="http://sodipodi.sourceforge.net/DTD/sodipodi-0.dtd"
   xmlns="http://www.w3.org/2000/svg"
   xmlns:svg="http://www.w3.org/2000/svg">
  <defs
     id="defs306" />
  <sodipodi:namedview
     id="namedview304"
     pagecolor="#505050"
     bordercolor="#eeeeee"
     borderopacity="1"
     inkscape:showpageshadow="0"
     inkscape:pageopacity="0"
     inkscape:pagecheckerboard="0"
     inkscape:deskcolor="#505050"
     showgrid="false"
     inkscape:zoom="0.39746094"
     inkscape:cx="912.03931"
     inkscape:cy="1024"
     inkscape:window-width="1920"
     inkscape:window-height="1017"
     inkscape:window-x="1912"
     inkscape:window-y="-8"
     inkscape:window-maximized="1"
     inkscape:current-layer="g308" />
  <g
     inkscape:groupmode="layer"
     inkscape:label="Image"
     id="g308">
    <path
       style="fill:#f3f3f3;fill-opacity:1;stroke-width:1;stroke-dasharray:none"
       d="m 1015,1885.9366 c -14.6031,-1.9347 -29.46494,-9.9719 -39.95226,-21.6061 -4.29425,-4.7638 -8.14703,-11.6849 -21.0592,-37.8305 -8.69187,-17.6 -39.36688,-79.7 -68.16669,-138 -28.79981,-58.3 -88.12897,-178.5436 -131.84257,-267.2079 -43.7136,-88.6643 -79.72711,-161.2268 -80.03001,-161.25 -0.30291,-0.023 -1.58209,2.0954 -2.84263,4.7079 -10.13927,21.0139 -31.52747,41.4103 -52.64079,50.1998 -15.19718,6.3266 -21.14852,7.4141 -40.96585,7.4854 -20.71399,0.075 -26.90284,-1.1987 -43.12261,-8.8719 -12.12841,-5.7377 -20.24471,-11.3342 -29.71292,-20.488 -16.11873,-15.5834 -25.32038,-31.4386 -31.96332,-55.0753 -2.07307,-7.3763 -2.11843,-9.4872 -2.75046,-128 C 469.29494,987.04038 469.07988,979.92097 464.92256,943.544 457.47575,878.38358 441.08451,813.74783 415.67773,749.35631 404.64128,721.38529 399.5684,710.37748 349.10446,604.89664 l -46.2168,-96.60336 -10.19383,-0.65558 C 263.60941,505.76724 239.63517,498.28638 219.26428,484.72493 194.61891,468.31785 178.67957,443.78004 171.85039,411.73367 168.71345,397.0134 168.74981,372.63918 171.9298,358.5 184.00524,304.80895 228.66179,259.23531 308.26047,219.36955 401.6619,172.59089 547.68103,134.4345 728.5,109.55635 809.96605,98.34777 894.86578,90.482072 973,86.904181 c 27.9586,-1.280269 98.3028,-0.699569 126,1.040145 170.1696,10.688664 322.1914,32.654454 451.5,65.237674 197.8769,49.86111 306.9803,118.82523 325.6104,205.818 3.1428,14.6752 3.157,38.02225 0.032,52.73367 -11.967,56.33878 -52.8734,89.87234 -116.4828,95.48844 l -13.8403,1.22196 -11.2792,23.16685 c -6.2035,12.74177 -15.7922,31.42935 -21.3082,41.52796 -11.4278,20.92175 -17.6946,35.26961 -25.7092,58.86112 -9.6558,28.42233 -16.2752,56.34087 -20.7461,87.5 -2.1106,14.70948 -2.1636,18.12794 -2.7389,176.5 l -0.5867,161.5 -2.2465,8 c -6.6208,23.5777 -22.6932,43.4888 -44.3147,54.8987 -12.7445,6.7255 -20.2829,8.7399 -34.8899,9.3233 -10.4139,0.416 -13.9535,0.1518 -21.2093,-1.5829 -30.6346,-7.3242 -55.5281,-31.1865 -64.3404,-61.6752 -1.2636,-4.3719 -1.8875,-11.5696 -2.337,-26.9639 l -0.6133,-21 -5.8895,11.5 c -3.2392,6.325 -7.354,14.875 -9.1439,19 -4.9612,11.4331 -33.539,70.0159 -82.9292,170 -47.1246,95.3977 -49.0234,99.7142 -57.5746,130.8871 -6.5211,23.7719 -10.3942,43.758 -13.6571,70.4734 -1.3756,11.2631 -1.6925,33.775 -2.2188,157.6395 l -0.6141,144.5 -2.3233,7 c -3.2122,9.6782 -10.1783,22.5355 -16.4139,30.295 -10.6416,13.2424 -28.602,24.8707 -45.2356,29.2873 -11.1676,2.9653 -28.8385,2.9645 -40,0 -24.766,-6.5821 -45.1906,-23.3958 -56.5795,-46.5769 -3.9621,-8.0643 -7.8607,-21.1953 -7.9908,-26.9135 -0.2027,-8.9142 -1.4081,-7.0065 -20.8942,33.0675 -47.4166,97.5142 -53.549,109.5242 -59.0316,115.6105 -5.9663,6.6231 -15.5001,13.7298 -22.3687,16.674 -10.7112,4.5914 -24.3014,6.4962 -35.6352,4.9946 z m 18.2997,-43.5486 c 6.7939,-3.4219 9.707,-7.5582 19.6411,-27.888 5.3752,-11 22.8415,-46.775 38.814,-79.5 15.9725,-32.725 36.0594,-73.675 44.6375,-91 l 15.5965,-31.5 0.011,-50 c 0.01,-32.1466 0.39,-51.3643 1.0721,-53.8208 1.2798,-4.6087 6.7246,-10.8803 11.3525,-13.0764 1.8599,-0.8826 5.9158,-1.6028 9.0262,-1.6028 8.4879,0 14.8699,3.8458 18.6658,11.2479 1.8572,3.6218 1.9222,7.0546 1.9311,102 0.01,60.8768 0.392,100.7247 1.0154,104.7521 2.7927,18.0427 18.7348,34.1773 36.4369,36.8769 17.734,2.7046 36.4675,-8.0887 44.9137,-25.8769 l 3.0863,-6.5 0.5714,-142.5 c 0.4959,-123.6638 0.7903,-144.3938 2.2274,-156.8273 1.771,-15.3233 4.7363,-34.468 7.0269,-45.3674 l 1.4069,-6.6948 -5.6163,-0.5596 c -47.0596,-4.689 -84.0918,-19.453 -118.7365,-47.3378 -63.7492,-51.3104 -92.1037,-138.3377 -71.3265,-218.9198 9.5434,-37.0129 28.0156,-69.3103 55.4211,-96.8996 31.4211,-31.63207 69.9482,-51.52583 115.3099,-59.54121 17.1809,-3.03586 51.1031,-3.29713 67.5933,-0.5206 43.1051,7.25775 79.9211,25.27204 115.7996,56.66138 l 4.6772,4.09203 3.4459,-6.29267 c 1.8952,-3.46095 10.928,-21.06934 20.0728,-39.12975 L 1494,923.82575 V 885.814 c 0,-42.46452 -0.1,-41.78071 7.0461,-48.2367 9.6436,-8.71241 24.4431,-6.42525 31.4185,4.85551 l 3.0354,4.90888 0.5,104.07915 0.5,104.07916 3.3477,6.8477 c 4.4069,9.0143 12.8186,17.418 21.8046,21.7838 6.3473,3.0839 7.5785,3.3285 16.8477,3.3478 9.1254,0.019 10.5685,-0.2492 16.5,-3.0656 11.4834,-5.4526 20.8102,-16.0356 25.3012,-28.709 0.8198,-2.3135 1.3012,-47.9782 1.7311,-164.2047 0.5884,-159.10198 0.6215,-161.18273 2.8041,-176.5 4.6787,-32.8352 12.0615,-64.64414 21.7393,-93.66469 8.7687,-26.29406 16.3012,-43.623 30.237,-69.56202 C 1688.8452,529.3771 1704,498.8599 1704,497.02636 c 0,-0.9888 -31.5214,-15.71429 -60.3694,-28.20207 C 1391.8655,359.83968 1114.4702,319.91272 836,352.57781 674.77935,371.4893 516.12987,416.50513 366.78674,485.71423 l -22.71326,10.52586 1.36554,3.12996 c 0.75105,1.72147 19.68736,41.37995 42.0807,88.12995 48.18666,100.59805 54.97809,115.31893 65.97253,143 34.78699,87.58436 53.17085,170.89318 57.48484,260.5 0.54282,11.275 0.99504,67.5655 1.00493,125.09 0.0174,101.4274 0.0787,104.8275 2.02617,112.442 5.42556,21.2138 19.25656,38.106 38.49181,47.0113 9.89201,4.5797 16.56322,5.8209 28.15648,5.2389 28.07351,-1.4093 50.10501,-19.9799 57.36091,-48.3502 1.88262,-7.361 1.98261,-11.2267 1.98261,-76.6491 0,-46.9434 0.35178,-70.2943 1.10398,-73.2816 4.24456,-16.8566 27.27058,-20.9068 37.39602,-6.5777 l 3,4.2455 0.5,50.6654 0.5,50.6655 10.29955,20.9662 c 5.66475,11.5314 10.43696,21.1036 10.60491,21.2716 0.16796,0.1679 6.24686,-2.5866 13.50868,-6.1212 22.91007,-11.1512 49.97046,-19.0186 74.58686,-21.6851 14.58312,-1.5796 39.52398,-0.6281 55.5,2.1174 66.77472,11.4752 122.83105,52.7449 153.4206,112.9511 15.8907,31.276 22.9886,61.257 22.9645,97 -0.024,35.8579 -6.9811,65.5325 -22.5539,96.2031 -10.91578,21.4987 -23.4864,38.4278 -41.49713,55.885 -16.62063,16.1098 -33.70671,27.8675 -56.41819,38.8236 l -11.58411,5.5883 56.67281,114.7769 c 33.81598,68.486 57.84702,116.0122 59.58412,117.8398 1.6012,1.6846 4.4863,3.9026 6.4113,4.9289 4.5155,2.4074 14.8363,2.5906 19.2997,0.3424 z M 693.5,936.03351 C 623.35421,924.91348 565.46759,882.4 534.08021,818.95135 509.35504,768.97014 505.52097,710.63971 523.468,657.5 c 11.01421,-32.6122 26.8283,-58.00244 51.43565,-82.58226 24.46485,-24.43749 50.59876,-40.74547 82.23177,-51.31396 53.99495,-18.03955 111.05192,-14.39556 161.52271,10.31577 64.38897,31.52591 108.00577,91.83471 117.78782,162.86483 1.98022,14.3789 2.01235,41.63139 0.0665,56.4144 C 926.22352,831.36643 872.97624,898.02005 799,925.33345 c -10.75944,3.97258 -25.25333,7.83858 -38.5,10.26922 -14.29746,2.62346 -51.65356,2.86367 -67,0.43084 z m 63.87857,-43.00709 C 838.1396,877.07833 896,807.01634 896,725.17255 896,676.61878 874.61123,629.21261 838.43499,597.58515 815.48207,577.51832 789.25602,564.39527 759,557.83729 c -9.24354,-2.00354 -13.31207,-2.27684 -34,-2.28393 -22.29581,-0.008 -24.11088,0.13624 -35.42137,2.8079 -23.41263,5.53032 -45.02178,14.988 -62.57863,27.38879 -12.197,8.61502 -32.6485,29.06964 -41.24365,41.24995 -12.65036,17.92702 -22.74131,41.25314 -27.94849,64.60546 -1.92735,8.64348 -2.20885,12.86588 -2.22638,33.39454 -0.0177,20.75466 0.24581,24.72664 2.25581,34 15.86384,73.18967 72.57668,125.59226 147.16271,135.97816 11.16605,1.55484 40.07656,0.47757 52.37857,-1.95174 z M 1281,830.8333 c -21.9939,-2.07161 -50.5536,-9.89858 -70.0589,-19.20007 -23.2577,-11.09097 -41.3664,-23.93305 -60.0234,-42.56671 -24.4598,-24.42922 -40.4781,-50.07264 -51.3031,-82.1301 -22.9473,-67.95689 -10.6143,-141.40682 33.3999,-198.9147 33.8965,-44.28844 86.4996,-74.01091 143.3886,-81.01922 12.9613,-1.59674 40.1647,-1.33306 53.5969,0.51951 95.4313,13.16195 169.9735,88.01727 182.5125,183.27921 1.9458,14.78301 1.9137,42.0355 -0.067,56.4144 C 1496.8163,760.70668 1394.9005,841.56161 1281,830.8333 Z m 54.5,-44.79736 C 1408.9397,770.23989 1461.8271,712.10185 1471.0761,637 c 1.5921,-12.92824 0.618,-36.63365 -2.0703,-50.37857 -13.4585,-68.81351 -66.8137,-122.16869 -135.6272,-135.62727 -13.745,-2.68824 -37.4504,-3.66237 -50.3786,-2.07023 -28.8424,3.55201 -54.1266,12.8239 -77,28.23643 -37.0279,24.95012 -62.4217,62.89851 -72.1627,107.83964 -2.01,9.27336 -2.2735,13.24534 -2.2558,34 0.017,20.52866 0.299,24.75106 2.2264,33.39454 5.2129,23.37796 15.3178,46.72441 27.9629,64.60546 7.8928,11.16108 26.5587,30.34868 37.2903,38.33274 21.7227,16.16104 46.0423,26.58788 73.9389,31.70068 14.7542,2.70409 47.7379,2.17768 62.5,-0.99748 z M 889.61154,1558.0366 c 45.69332,-22.9098 77.40125,-64.4106 88.43567,-115.7487 2.72215,-12.6649 3.75757,-41.8327 1.98705,-55.9754 -3.53207,-28.2138 -14.23718,-55.2943 -31.35282,-79.3125 -7.97162,-11.1865 -26.79942,-29.8064 -38.68144,-38.2544 -35.83379,-25.4772 -82.75832,-36.4246 -124.96743,-29.1544 -18.24869,3.1431 -41.64295,11.1165 -55.76831,19.0073 l -6.23574,3.4834 7.3003,14.7091 c 4.01516,8.0899 37.64624,76.2456 74.73574,151.4569 47.90418,97.1418 67.90219,136.7485 69.04698,136.75 0.88635,0 7.86135,-3.1314 15.5,-6.9613 z M 1306.2357,1303.25 c 5.2886,-10.8625 11.4129,-24.025 13.6096,-29.25 2.1968,-5.225 28.5552,-59.1529 58.5744,-119.8398 30.0192,-60.6869 54.5803,-110.7008 54.5803,-111.1419 0,-1.6113 -9.4022,-11.1965 -18.3357,-18.6925 -48.7885,-40.93823 -109.0935,-53.21005 -168.1414,-34.21605 -12.256,3.94241 -32.9947,14.49865 -44.5229,22.66255 -11.8483,8.3907 -30.6851,27.0066 -38.6814,38.2277 -21.9676,30.8268 -32.3068,63.1502 -32.3068,101 0,47.6244 16.7677,88.019 50.4346,121.5 13.6147,13.5397 26.0855,22.4978 43.0536,30.9269 22.0906,10.9736 44.0953,16.7654 70.06,18.4402 1.7226,0.1111 3.6352,-3.1024 11.6757,-19.6171 z M 326.60567,457.40027 C 527.52913,360.83968 737.5268,308.86796 963,299.90084 c 32.7933,-1.30419 120.0499,-0.6819 149,1.06264 123.0265,7.41359 231.5415,25.15228 343.5,56.15112 89.1372,24.68014 182.9983,60.04882 265,99.85719 l 19,9.2237 11.5,-0.55105 c 45.5717,-2.18365 73.1207,-21.34585 82.7458,-57.55548 3.222,-12.12112 3.6563,-31.54992 0.9481,-42.41787 C 1822.1977,315.5238 1763.0016,269.63262 1661,231.01653 c -127.3107,-48.19766 -330.0175,-85.56778 -539.5,-99.4598 -84.7111,-5.61769 -141.28561,-4.79628 -241.5,3.50635 -113.77808,9.42636 -232.08522,26.88952 -329,48.56327 -199.61221,44.64069 -318.68755,108.27266 -337.06333,180.12127 -6.40025,25.02475 -1.10305,53.17076 13.60829,72.30596 14.05604,18.28284 41.10062,29.32115 73.06071,29.81992 L 308.71134,466 Z"
       id="path476" />
  </g>
</svg>
